<svg width="50" height="50" viewBox="0 0 50 50" fill="none" xmlns="http://www.w3.org/2000/svg">
<path d="M36.8168 1.56134H4.39454C1.97071 1.56134 0 3.53302 0 5.95588V29.3936C0 31.8174 1.97071 33.7882 4.39454 33.7882C7.46974 33.7882 7.88283 33.7882 7.88283 33.7882H8.78908V41.1125C8.78908 42.4191 10.3731 43.0646 11.2891 42.1486C15.3789 38.0578 12.5069 40.9308 19.2199 34.2178C19.4953 33.9425 19.8663 33.7882 20.256 33.7882H36.8167C39.2395 33.7882 41.2112 31.8174 41.2112 29.3936C41.2112 15.7158 41.2112 19.6669 41.2112 5.95588C41.2113 3.53302 39.2396 1.56134 36.8168 1.56134ZM7.32433 10.3504H28.0277C28.8373 10.3504 29.4925 11.0057 29.4925 11.8153C29.4925 12.6248 28.8373 13.2801 28.0277 13.2801H7.32433C6.51476 13.2801 5.85948 12.6248 5.85948 11.8153C5.85948 11.0057 6.51476 10.3504 7.32433 10.3504ZM22.1682 24.9991H7.32433C6.51476 24.9991 5.85948 24.3438 5.85948 23.5342C5.85948 22.7247 6.51476 22.0694 7.32433 22.0694H22.1682C22.9778 22.0694 23.6331 22.7247 23.6331 23.5342C23.6331 24.3438 22.9778 24.9991 22.1682 24.9991ZM33.8871 19.1396H7.32433C6.51476 19.1396 5.85948 18.4843 5.85948 17.6747C5.85948 16.8652 6.51476 16.2099 7.32433 16.2099H33.8871C34.6966 16.2099 35.3519 16.8652 35.3519 17.6747C35.3519 18.4843 34.6966 19.1396 33.8871 19.1396Z" fill="#2C2C2C"/>
<path d="M45.6055 7.42081H44.1602V29.3937C44.1602 33.4321 40.8549 36.718 36.8164 36.718H21.0577L17.9327 39.6282H30.3504L38.7104 48.0077C39.6289 48.9262 41.2109 48.2815 41.2109 46.9721V39.6282H45.6054C48.0287 39.6282 50 37.6764 50 35.2532V11.8154C50.0001 9.3921 48.0289 7.42081 45.6055 7.42081Z" fill="#2C2C2C"/>
</svg>
