<svg width="24" height="24" viewBox="0 0 24 24" fill="none" xmlns="http://www.w3.org/2000/svg">
<g clip-path="url(#clip0)">
<path d="M22.7963 10.0591C22.5793 9.84213 22.2538 9.84213 22.0368 10.0591L11.1879 20.9081C8.8011 23.2948 5.32943 23.6203 3.43087 21.6675C1.47805 19.7147 1.85777 16.243 4.19029 13.9105L15.6359 2.46483C17.1548 0.945974 19.4331 0.674749 20.6807 1.92238C21.9283 3.17001 21.7114 5.44829 20.1383 6.96715L9.99449 17.1109C9.56053 17.5449 9.01808 17.8161 8.47563 17.8704C7.93318 17.9246 7.49923 17.7619 7.17376 17.4364C6.46858 16.7312 6.63131 15.4836 7.49923 14.6157L14.2798 7.83507C14.4968 7.61809 14.4968 7.29262 14.2798 7.07564C14.0628 6.85866 13.7374 6.85866 13.5204 7.07564L6.68555 13.8562L6.63131 13.9105C6.63131 13.9105 6.63131 13.9647 6.57706 13.9647C5.38368 15.2666 5.27519 17.1109 6.36009 18.1958C6.90253 18.7383 7.66196 19.0095 8.52988 18.9553C9.34355 18.901 10.103 18.5213 10.7539 17.8704L20.8977 7.72658C22.8505 5.77376 23.1217 2.7903 21.4401 1.10871C19.7586 -0.572882 16.8293 -0.301658 14.8223 1.65116L3.37662 13.0968C0.610137 15.8633 0.230423 20.0402 2.61719 22.4269C3.64785 23.4576 5.05821 24 6.57706 24C8.42139 24 10.3742 23.1864 11.9473 21.6675L22.7963 10.8185C23.0132 10.6016 23.0132 10.2761 22.7963 10.0591Z" fill="#C4C4C4"/>
</g>
<defs>
<clipPath id="clip0">
<rect width="24" height="24" fill="white"/>
</clipPath>
</defs>
</svg>
