<svg width="10" height="10" viewBox="0 0 10 10" fill="none" xmlns="http://www.w3.org/2000/svg">
<path fill-rule="evenodd" clip-rule="evenodd" d="M1.70711 0.292893C1.31658 -0.0976315 0.683417 -0.0976315 0.292893 0.292893C-0.0976311 0.683417 -0.0976311 1.31658 0.292893 1.70711L3.58396 4.99817L0.292893 8.28923C-0.0976311 8.67976 -0.0976311 9.31292 0.292893 9.70344C0.683417 10.094 1.31658 10.094 1.70711 9.70344L4.99817 6.41238L8.28923 9.70344C8.67975 10.094 9.31292 10.094 9.70344 9.70344C10.094 9.31292 10.094 8.67975 9.70344 8.28923L6.41238 4.99817L9.70344 1.70711C10.094 1.31658 10.094 0.68342 9.70344 0.292895C9.31292 -0.0976291 8.67975 -0.0976291 8.28923 0.292895L4.99817 3.58396L1.70711 0.292893Z" fill="#2C2C2C"/>
</svg>
