<svg width="16" height="16" viewBox="0 0 16 16" fill="none" xmlns="http://www.w3.org/2000/svg">
<path d="M12.516 10.3394C11.8823 11.2097 10.8559 11.7765 9.69946 11.7765H8.0768C7.51625 11.7765 7.0389 11.4206 6.85814 10.9225C6.63503 10.8559 6.41622 10.7696 6.20271 10.6635C5.75056 10.4388 5.34 10.1345 4.9786 9.75742C2.6343 10.2724 0.879742 12.3613 0.879742 14.8603V15.187C0.879742 15.636 1.24376 16 1.69278 16H14.3072C14.7562 16 15.1202 15.636 15.1202 15.187V14.8603C15.1202 12.9298 14.0731 11.244 12.516 10.3394Z" fill="#2C2C2C"/>
<path d="M4.11447 8.08159C4.46391 8.08159 4.76806 7.88792 4.92563 7.60211C4.92977 7.61343 4.93399 7.62467 4.93823 7.63591C4.93949 7.63929 4.94074 7.64266 4.94199 7.64604C5.31165 8.61906 6.03092 9.43474 6.97936 9.79114C7.20874 9.42666 7.61436 9.18426 8.07685 9.18426H9.69951C9.86137 9.18426 10.012 9.1386 10.1441 9.06477C10.3659 8.94075 10.5653 8.62612 10.6683 8.45936C10.8331 8.19249 10.9608 7.90981 11.0741 7.60163C11.1377 7.71719 11.2252 7.81771 11.33 7.89648V8.29437C11.33 9.19345 10.5986 9.92494 9.69948 9.92494H8.07681C7.77005 9.92494 7.52135 10.1736 7.52135 10.4804C7.52135 10.7872 7.77005 11.0359 8.07681 11.0359H9.69948C11.2111 11.0359 12.441 9.80603 12.441 8.29437V7.89648C12.6658 7.72756 12.8113 7.4587 12.8113 7.15584V5.48093V4.83866C12.8113 4.52956 12.6597 4.25608 12.4269 4.08792C12.2464 1.8036 10.3299 0 7.99999 0C5.67003 0 3.75355 1.8036 3.57304 4.08789C3.34028 4.25605 3.18869 4.52956 3.18869 4.83862V7.15577C3.18869 7.66853 3.60524 8.08159 4.11447 8.08159ZM7.99999 1.11096C9.72478 1.11096 11.1474 2.42906 11.3137 4.11086C11.2045 4.19673 11.1151 4.30648 11.0535 4.43242C10.5294 3.06496 9.35934 2.1129 7.99996 2.1129C6.61127 2.1129 5.46 3.09768 4.94847 4.42695C4.94777 4.42876 4.94711 4.43061 4.94641 4.43245C4.8848 4.30652 4.79538 4.19677 4.68622 4.1109C4.85261 2.42906 6.2752 1.11096 7.99999 1.11096Z" fill="#2C2C2C"/>
</svg>
