<svg width="16" height="16" viewBox="0 0 16 16" fill="none" xmlns="http://www.w3.org/2000/svg">
<g clip-path="url(#clip0)">
<path d="M3.86666 4.06666C3.33331 3.53331 1.06666 3.4 0.333313 3.33331C0.266656 3.33331 0.199969 3.33331 0.133312 3.39997C0.0666562 3.46666 0 3.6 0 3.66666V9.66667C0 9.86667 0.133344 10 0.333344 10H2.33334C2.46669 10 2.6 9.93336 2.66669 9.80001C2.66669 9.60001 3.86669 6.06666 4.00003 4.33335C4 4.26666 4 4.13335 3.86666 4.06666Z" fill="#2C2C2C"/>
<path d="M11 5.66663C10.3333 5.46663 9.73332 5.19998 9.19997 4.99998C7.99997 4.46663 7.46663 4.73332 6.39997 5.79998C5.93332 6.26664 5.59997 6.93332 5.66663 7.19998C5.66663 7.26664 5.66663 7.26664 5.79997 7.33333C6.13332 7.46667 6.59997 7.53333 7.06663 6.79998C7.13329 6.73332 7.19997 6.66664 7.33329 6.66664C7.53329 6.66664 7.59994 6.59998 7.79994 6.53329C7.93329 6.46664 8.0666 6.39995 8.2666 6.33329C8.33326 6.33329 8.33326 6.33329 8.39994 6.33329C8.4666 6.33329 8.59994 6.39995 8.6666 6.39995C8.99997 6.73332 9.59997 7.19998 10.2 7.73333C11.1333 8.46667 12.0666 9.26667 12.5333 9.86668H12.6C12.1333 8.53333 11.3333 6.26664 11 5.66663Z" fill="#2C2C2C"/>
<path d="M15.6667 4C13.0667 4 11.6 4.66666 11.5333 4.66666C11.4667 4.73331 11.4 4.8 11.3333 4.86666C11.3333 4.93331 11.3333 5.06666 11.4 5.13331C11.8 5.79997 13.1333 9.46666 13.3333 10.4C13.4 10.5333 13.5333 10.6666 13.6667 10.6666H15.6667C15.8667 10.6666 16 10.5333 16 10.3333V4.33328C16 4.13334 15.8667 4 15.6667 4Z" fill="#2C2C2C"/>
<path d="M12.0666 10.5334C11.8 9.93335 10.6666 9.06669 9.66664 8.26669C9.13333 7.8 8.59999 7.4 8.19999 7.06666C8.13333 7.13331 7.99999 7.13331 7.99999 7.2C7.79999 7.26666 7.73333 7.33335 7.46664 7.33335C6.93333 8 6.26664 8.26666 5.53333 8C5.19999 7.93335 4.99999 7.66666 4.93333 7.4C4.79999 6.73335 5.39999 5.8 5.86667 5.33334H4.53333C4.26667 6.66669 3.79999 8.4 3.46667 9.33335C3.73333 9.60001 4.00002 9.93335 4.20002 10.0667C5.46667 11.1334 6.93336 12.2 7.20002 12.4C7.40002 12.5334 7.80002 12.6667 8.00002 12.6667C8.06668 12.6667 8.13336 12.6667 8.20002 12.6667L7.13333 11.6C6.99999 11.4667 6.99999 11.2667 7.13333 11.1334C7.26667 11 7.46667 11 7.59999 11.1334L8.93333 12.4667C9.06668 12.6 9.19999 12.5334 9.33333 12.5334C9.53333 12.4667 9.59999 12.3334 9.66668 12.1334L8.13333 10.6C7.99999 10.4667 7.99999 10.2667 8.13333 10.1334C8.26668 10 8.46668 10 8.59999 10.1334L10.2666 11.8C10.3333 11.8667 10.6 11.8667 10.8 11.8C10.8666 11.7334 11 11.6667 11.0666 11.5334L9.19999 9.66666C9.06664 9.53332 9.06664 9.33332 9.19999 9.20001C9.33333 9.06669 9.53333 9.06666 9.66664 9.20001L11.6 11.1334C11.7333 11.2 11.8666 11.1334 12 11.0667C12.0666 11 12.2 10.8 12.0666 10.5334Z" fill="#2C2C2C"/>
</g>
<defs>
<clipPath id="clip0">
<rect width="16" height="16" fill="white"/>
</clipPath>
</defs>
</svg>
