<svg width="16" height="16" viewBox="0 0 16 16" fill="none" xmlns="http://www.w3.org/2000/svg">
<g clip-path="url(#clip0)">
<path d="M13.6573 2.34293C10.533 -0.780965 5.46751 -0.781313 2.34292 2.34293C-0.781317 5.46717 -0.780969 10.5327 2.34292 13.6573C5.46717 16.7808 10.5327 16.7812 13.6573 13.6573C16.7812 10.5327 16.7808 5.46752 13.6573 2.34293ZM9.04324 11.4784C9.04324 12.0548 8.5761 12.5219 7.99974 12.5219C7.42338 12.5219 6.95624 12.0548 6.95624 11.4784V7.30443C6.95624 6.72807 7.42338 6.26093 7.99974 6.26093C8.5761 6.26093 9.04324 6.72807 9.04324 7.30443V11.4784ZM7.98131 5.52074C7.38025 5.52074 6.97955 5.09499 6.99207 4.56941C6.97955 4.01844 7.38025 3.60556 7.99348 3.60556C8.60706 3.60556 8.99524 4.01879 9.00811 4.56941C9.00776 5.09499 8.60741 5.52074 7.98131 5.52074Z" fill="#2C2C2C"/>
</g>
<defs>
<clipPath id="clip0">
<rect width="16" height="16" fill="white"/>
</clipPath>
</defs>
</svg>
