<svg width="16" height="16" viewBox="0 0 16 16" fill="none" xmlns="http://www.w3.org/2000/svg">
<g clip-path="url(#clip0)">
<path d="M14.4931 1.50736C12.4826 -0.503144 9.21144 -0.503113 7.20094 1.50739C5.82765 2.88067 5.35065 4.90445 5.94528 6.74054L0.138343 12.5475C0.0504369 12.6354 0.000999451 12.7544 0.000999451 12.8789V15.5308C0.000999451 15.7899 0.210656 15.9995 0.469749 15.9995H3.12156C3.24606 15.9995 3.36509 15.9501 3.45297 15.8622L4.11581 15.1989C4.21697 15.0977 4.2664 14.9558 4.24994 14.8134L4.16753 14.1011L5.15447 14.0082C5.37878 13.9871 5.55594 13.81 5.577 13.5857L5.66994 12.5987L6.38222 12.6816C6.5145 12.6994 6.64772 12.655 6.74797 12.5662C6.84775 12.477 6.90497 12.3497 6.90497 12.216V11.3433H7.7619C7.8864 11.3433 8.00543 11.2938 8.09331 11.2059L9.2954 10.0197C11.131 10.6148 13.1198 10.1738 14.4931 8.79954C16.5036 6.78907 16.5036 3.51786 14.4931 1.50736ZM13.167 4.82204C12.6186 5.37045 11.7269 5.37045 11.1785 4.82204C10.6301 4.27364 10.6301 3.38192 11.1785 2.83351C11.7269 2.28511 12.6186 2.28511 13.167 2.83351C13.7154 3.38192 13.7154 4.27364 13.167 4.82204Z" fill="#2C2C2C"/>
</g>
<defs>
<clipPath id="clip0">
<rect width="16" height="16" fill="white"/>
</clipPath>
</defs>
</svg>
