<svg width="24" height="24" viewBox="0 0 24 24" fill="none" xmlns="http://www.w3.org/2000/svg">
<path d="M22.5707 9.85951L3.20688 1.82466C2.39111 1.48613 1.4695 1.63505 0.80177 2.21312C0.134035 2.79127 -0.145246 3.68209 0.0730042 4.53788L1.79655 11.2969H10.2353C10.6236 11.2969 10.9384 11.6117 10.9384 12.0001C10.9384 12.3884 10.6236 12.7032 10.2353 12.7032H1.79655L0.0730042 19.4622C-0.145246 20.318 0.133989 21.2089 0.80177 21.787C1.47086 22.3662 2.39257 22.5133 3.20693 22.1754L22.5707 14.1406C23.4523 13.7748 24 12.9546 24 12.0001C24 11.0455 23.4523 10.2253 22.5707 9.85951Z" fill="#5278FF"/>
</svg>
