<svg width="16" height="16" viewBox="0 0 16 16" fill="none" xmlns="http://www.w3.org/2000/svg">
<g clip-path="url(#clip0)">
<path d="M5.1875 10.3439H13.6564C13.8661 10.3439 14.0501 10.2052 14.1068 10.0038L15.9819 3.44116C16.0222 3.29968 15.9946 3.14771 15.9059 3.03015C15.817 2.91296 15.6788 2.84375 15.5314 2.84375H4.10535L3.77027 1.33594C3.72266 1.12122 3.53223 0.96875 3.3125 0.96875H0.468754C0.209721 0.96875 3.8147e-06 1.17847 3.8147e-06 1.4375C3.8147e-06 1.69666 0.209721 1.90625 0.468754 1.90625H2.93628L4.62903 9.52344C4.13099 9.73999 3.78125 10.2357 3.78125 10.8126C3.78125 11.588 4.41211 12.2189 5.1875 12.2189H13.6564C13.9155 12.2189 14.1251 12.0093 14.1251 11.7501C14.1251 11.4911 13.9155 11.2814 13.6564 11.2814H5.1875C4.92933 11.2814 4.71875 11.0713 4.71875 10.8126C4.71875 10.554 4.92933 10.3439 5.1875 10.3439V10.3439Z" fill="#2C2C2C"/>
<path d="M4.71877 13.6251C4.71877 14.4006 5.34963 15.0314 6.12515 15.0314C6.90054 15.0314 7.5314 14.4006 7.5314 13.6251C7.5314 12.8497 6.90054 12.2189 6.12515 12.2189C5.34963 12.2189 4.71877 12.8497 4.71877 13.6251Z" fill="#2C2C2C"/>
<path d="M11.3126 13.6251C11.3126 14.4006 11.9435 15.0314 12.7189 15.0314C13.4944 15.0314 14.1251 14.4006 14.1251 13.6251C14.1251 12.8497 13.4944 12.2189 12.7189 12.2189C11.9435 12.2189 11.3126 12.8497 11.3126 13.6251Z" fill="#2C2C2C"/>
</g>
<defs>
<clipPath id="clip0">
<rect width="16" height="16" fill="white"/>
</clipPath>
</defs>
</svg>
