<svg width="16" height="16" viewBox="0 0 16 16" fill="none" xmlns="http://www.w3.org/2000/svg">
<g clip-path="url(#clip0)">
<path d="M10.083 8.06219C10.5731 8.06219 11.0339 7.87134 11.3804 7.52478C11.727 7.17822 11.9179 6.71747 11.9179 6.22734C11.9179 5.73722 11.727 5.27644 11.3804 4.92988C11.3311 4.88056 11.2796 4.83447 11.2261 4.79166C11.3117 5.01619 11.3564 5.25675 11.3564 5.50428C11.3564 6.03753 11.1488 6.53891 10.7717 6.916C10.3946 7.29309 9.89323 7.50078 9.35995 7.50078C9.11248 7.50078 8.87188 7.45603 8.64738 7.37041C8.69017 7.42394 8.73629 7.47544 8.78557 7.52475C9.13213 7.87131 9.59288 8.06219 10.083 8.06219Z" fill="#2C2C2C"/>
<path d="M14.5911 0.868835H5.96535V15.1312H14.5911C15.368 15.1312 16 14.4991 16 13.7223V2.27768C16 1.50087 15.368 0.868835 14.5911 0.868835V0.868835ZM7.38742 5.5785C7.44032 5.35787 7.64282 5.20634 7.87032 5.21987C8.09689 5.23299 8.28151 5.40653 8.3086 5.63184C8.33714 5.8689 8.44173 6.08371 8.61114 6.25306C8.81114 6.45309 9.07707 6.56328 9.35995 6.56328C9.64282 6.56328 9.90876 6.45312 10.1088 6.25309C10.3088 6.05306 10.4189 5.78715 10.4189 5.50428C10.4189 5.22137 10.3088 4.95543 10.1088 4.75543C9.93939 4.58606 9.72454 4.48143 9.48748 4.4529C9.26217 4.42578 9.08864 4.24115 9.07554 4.01459C9.06242 3.78802 9.21348 3.58462 9.43417 3.53171C10.3806 3.30456 11.3559 3.57956 12.0434 4.26696C12.567 4.79059 12.8554 5.48678 12.8554 6.22731C12.8554 6.96781 12.567 7.66403 12.0434 8.18762C11.5197 8.71128 10.8235 8.99962 10.083 8.99962C9.34251 8.99962 8.64629 8.71125 8.1227 8.18762C7.43529 7.50031 7.16042 6.5249 7.38742 5.5785V5.5785ZM6.93051 4.20574C6.69435 4.18153 6.51014 3.98203 6.51014 3.73949C6.51014 3.49696 6.69435 3.29746 6.93051 3.27324C6.95473 3.03709 7.15423 2.85287 7.39676 2.85287C7.63929 2.85287 7.83879 3.03709 7.86301 3.27324C8.09917 3.29746 8.28339 3.49696 8.28339 3.73949C8.28339 3.98203 8.09917 4.18153 7.86301 4.20574C7.83879 4.4419 7.63929 4.62612 7.39676 4.62612C7.15423 4.62612 6.95473 4.4419 6.93051 4.20574V4.20574Z" fill="#2C2C2C"/>
<path d="M3.46189 0.868835H5.0278V15.1312H3.46189V0.868835Z" fill="#2C2C2C"/>
<path d="M2.52441 0.868835H1.40887C0.632031 0.868835 0 1.50087 0 2.27768V13.7223C0 14.4991 0.632031 15.1312 1.40887 15.1312H2.52441V0.868835Z" fill="#2C2C2C"/>
</g>
<defs>
<clipPath id="clip0">
<rect width="16" height="16" fill="white"/>
</clipPath>
</defs>
</svg>
