<svg width="22" height="19" viewBox="0 0 22 19" fill="none" xmlns="http://www.w3.org/2000/svg">
<path fill-rule="evenodd" clip-rule="evenodd" d="M0.0155029 1C0.0155029 0.447715 0.463218 0 1.0155 0H20.0141C20.5664 0 21.0141 0.447715 21.0141 1C21.0141 1.55228 20.5664 2 20.0141 2H1.0155C0.463218 2 0.0155029 1.55228 0.0155029 1ZM0.0155029 9.49821C0.0155029 8.94592 0.463218 8.49821 1.0155 8.49821H13.2289C13.7812 8.49821 14.2289 8.94592 14.2289 9.49821C14.2289 10.0505 13.7812 10.4982 13.2289 10.4982H1.0155C0.463218 10.4982 0.0155029 10.0505 0.0155029 9.49821ZM1.0155 16.9964C0.463218 16.9964 0.0155029 17.4441 0.0155029 17.9964C0.0155029 18.5487 0.463218 18.9964 1.0155 18.9964H20.0141C20.5664 18.9964 21.0141 18.5487 21.0141 17.9964C21.0141 17.4441 20.5664 16.9964 20.0141 16.9964H1.0155Z" fill="#2C2C2C"/>
</svg>
