<svg width="16" height="16" viewBox="0 0 16 16" fill="none" xmlns="http://www.w3.org/2000/svg">
<path d="M14.909 13.0909H12.3636C10.7596 13.0909 9.45458 11.7859 9.45458 10.1819C9.45458 8.57788 10.7596 7.27287 12.3636 7.27287H14.909C15.11 7.27287 15.2727 7.11022 15.2727 6.90923V5.81833C15.2727 5.0558 14.6812 4.43566 13.9339 4.37553L11.8455 0.727861C11.652 0.390503 11.3395 0.149382 10.9656 0.0492583C10.5934 -0.0501832 10.2042 0.00204321 9.87113 0.195915L2.71205 4.3638H1.4547C0.652517 4.3638 0.000164032 5.01612 0.000164032 5.81833V14.5455C0.000164032 15.3476 0.652483 16 1.4547 16H13.8181C14.6203 16 15.2727 15.3477 15.2727 14.5455V13.4546C15.2727 13.2536 15.11 13.0909 14.909 13.0909ZM12.2965 2.97987L13.0888 4.3638H9.91943L12.2965 2.97987ZM4.15748 4.3638L10.2372 0.824439C10.4016 0.728202 10.5937 0.702634 10.7774 0.751656C10.9631 0.80136 11.1179 0.921392 11.2141 1.08935L11.2149 1.09068L5.59306 4.3638H4.15748Z" fill="#2C2C2C"/>
</svg>
